<?xml version="1.0" encoding="UTF-8"?>
<!-- Generator: Bez 1.0.2u (15139) - http://www.juicybitssoftware.com/bez -->
<svg width="5000.0" height="5000.0" version="1.1" xmlns="http://www.w3.org/2000/svg" xmlns:xlink="http://www.w3.org/1999/xlink">
  <title>Hazout #13293D</title>
  <desc>Created with Bez</desc>
  <path id="Ellipse" fill="#13293d" d="M3681.4,3030.1 C3681.4,3055.3 3661.0,3075.7 3635.8,3075.7 C3610.6,3075.7 3590.2,3055.3 3590.2,3030.1 C3590.2,3005.0 3610.6,2984.6 3635.8,2984.6 C3661.0,2984.6 3681.4,3005.0 3681.4,3030.1 Z"/>
  <path id="Path" fill="#13293d" d="M3407.8,3372.1 C3407.8,3372.1 3453.4,3394.9 3453.4,3440.5 C3453.4,3486.1 3407.8,3508.9 3385.0,3508.9 C3362.2,3508.9 3293.8,3508.9 3293.8,3508.9 C3293.8,3508.9 3213.0,3519.9 3213.0,3428.7 C3213.0,3337.5 3339.4,3326.5 3339.4,3326.5 C3339.4,3326.5 3252.0,3374.0 3252.2,3418.0 C3252.4,3462.0 3285.4,3458.5 3295.6,3458.5 C3305.8,3458.5 3383.9,3459.3 3383.9,3459.3 C3383.9,3459.3 3415.0,3460.7 3420.1,3420.9 C3425.2,3381.2 3407.8,3372.1 3407.8,3372.1 Z"/>
  <path id="Path-1" fill="#13293d" d="M3228.9,3204.3 C3228.9,3204.3 3176.0,3164.0 3166.3,3160.9 C3156.6,3157.9 3154.9,3165.7 3154.6,3174.8 C3154.3,3184.0 3151.5,3479.3 3151.5,3479.3 C3151.5,3479.3 3133.5,3513.8 3116.8,3520.2 C3118.4,3520.8 3195.8,3515.2 3198.6,3450.1 C3201.4,3385.0 3198.7,3207.2 3198.7,3207.2 L3228.9,3204.3 Z"/>
  <path id="Path-2" fill="none" stroke="#000" stroke-width="1.0" d=""/>
  <path id="Path-3" fill="none" stroke="#000" stroke-width="1.0" d=""/>
  <path id="Path-4" fill="#13293d" d="M2859.0,3460.1 L3023.7,3459.6 C3023.7,3459.6 3056.6,3449.8 3056.9,3406.4 C3057.1,3363.0 2983.7,3356.6 2955.8,3356.6 C2928.0,3356.6 2898.5,3356.1 2887.4,3358.3 C2876.2,3360.4 2852.6,3369.4 2846.7,3384.4 C2847.6,3384.7 2849.8,3371.9 2849.8,3371.9 C2849.8,3371.9 2859.7,3340.4 2891.0,3321.6 C2910.5,3310.0 2939.2,3306.3 2975.9,3308.7 C3016.8,3311.5 3047.6,3319.8 3065.1,3333.9 C3088.6,3352.8 3091.1,3378.3 3091.1,3378.3 C3091.1,3378.3 3101.4,3418.1 3048.5,3459.6 C3059.1,3460.7 3103.0,3459.0 3103.0,3459.0 L3126.4,3442.6 L3084.4,3506.6 L2836.2,3507.2 L2827.8,3512.7 L2859.0,3460.1 Z"/>
  <path id="Path-5" fill="none" stroke="#000" stroke-width="1.0" d=""/>
  <path id="Path-6" fill="#13293d" d="M2735.8,3355.6 L2798.7,3290.2 L2812.6,3290.7 L2812.6,3391.2 C2812.6,3391.2 2792.9,3431.3 2760.9,3446.3 C2761.7,3446.0 2762.5,3356.4 2762.5,3356.4 L2735.8,3355.6 Z"/>
  <path id="Path-7" fill="#13293d" d="M2458.1,3253.2 C2458.1,3253.2 2474.0,3307.2 2513.0,3307.5 C2551.9,3307.8 2607.9,3308.6 2607.9,3308.6 C2607.9,3308.6 2709.4,3318.9 2714.4,3418.6 C2717.5,3486.5 2656.3,3513.5 2656.3,3513.5 C2656.3,3513.5 2682.7,3494.8 2683.3,3431.4 C2679.1,3377.1 2624.3,3359.3 2602.0,3358.2 C2579.7,3357.0 2498.5,3358.7 2498.5,3358.7 L2497.1,3462.8 C2497.1,3462.8 2502.1,3487.3 2449.8,3516.2 C2449.2,3517.1 2449.5,3357.9 2449.5,3357.9 C2449.5,3357.9 2420.8,3354.0 2407.5,3369.3 C2408.3,3370.1 2405.8,3342.3 2455.3,3314.2 C2455.9,3314.7 2458.1,3253.2 2458.1,3253.2 Z"/>
  <path id="Path-8" fill="#13293d" d="M2302.7,3355.8 L2365.6,3290.4 L2379.6,3291.0 L2379.6,3391.5 C2379.6,3391.5 2359.8,3431.5 2327.8,3446.6 C2328.6,3446.3 2329.5,3356.7 2329.5,3356.7 L2302.7,3355.8 Z"/>
  <path id="Path-9" fill="#13293d" d="M1866.3,3252.5 C1866.3,3252.5 1882.2,3306.5 1921.1,3306.8 C1960.1,3307.1 2016.0,3307.9 2016.0,3307.9 C2016.0,3307.9 2117.6,3318.2 2122.6,3417.8 C2125.7,3485.7 2064.4,3512.7 2064.4,3512.7 C2064.4,3512.7 2090.9,3494.1 2091.4,3430.6 C2087.3,3376.4 2032.4,3358.6 2010.2,3357.4 C1987.9,3356.2 1906.7,3358.0 1906.7,3358.0 L1905.3,3462.1 C1905.3,3462.1 1910.3,3486.6 1858.0,3515.5 C1857.4,3516.3 1857.7,3357.2 1857.7,3357.2 C1857.7,3357.2 1829.0,3353.3 1815.6,3368.6 C1816.5,3369.4 1814.0,3341.6 1863.5,3313.5 C1864.1,3314.0 1866.3,3252.5 1866.3,3252.5 Z"/>
  <path id="Path-10" fill="#13293d" d="M1649.0,3367.0 C1649.0,3367.0 1676.6,3313.0 1696.3,3311.6 C1716.1,3310.2 1791.5,3310.2 1791.5,3310.2 L1807.1,3298.0 C1807.1,3298.0 1782.1,3356.2 1757.3,3356.2 C1756.7,3356.4 1724.4,3355.6 1720.6,3373.4 C1716.7,3391.2 1716.7,3396.0 1738.6,3427.1 C1760.6,3458.3 1743.1,3485.6 1730.0,3495.9 C1716.9,3506.2 1693.0,3517.9 1693.0,3517.9 C1693.0,3517.9 1710.5,3505.6 1709.1,3479.4 C1707.8,3453.3 1679.4,3440.5 1679.4,3411.0 C1679.4,3381.5 1719.2,3357.6 1719.2,3357.6 L1666.6,3358.4 L1649.0,3367.0 Z"/>
  <path id="Path-11" fill="#13293d" d="M1546.6,3348.9 L1605.4,3281.1 L1617.7,3281.1 L1619.5,3459.7 C1619.5,3459.7 1608.1,3494.7 1571.6,3510.9 L1572.7,3349.7 L1546.6,3348.9 Z"/>
  <path id="Path-12" fill="#13293d" d="M1367.4,3354.9 C1351.0,3361.9 1336.3,3378.0 1336.3,3378.0 C1336.3,3378.0 1357.7,3301.7 1427.9,3302.0 C1498.0,3302.3 1515.0,3368.0 1517.5,3394.7 C1520.0,3421.4 1472.1,3504.6 1437.0,3504.3 C1392.0,3504.9 1263.9,3505.5 1263.9,3505.5 L1261.2,3215.7 L1236.7,3216.9 L1295.1,3152.9 L1305.7,3152.3 L1306.2,3459.0 L1474.6,3459.0 C1474.6,3459.0 1480.7,3462.0 1483.5,3434.2 C1486.3,3406.4 1471.3,3351.8 1423.7,3351.0 C1400.3,3350.6 1383.2,3348.2 1367.4,3354.9 Z"/>
  <path id="Path-13" fill="#13293d" d="M1627.7,3560.3"/>
  <path id="Path-14" fill="#13293d" d="M1830.9,2255.2 C1740.2,2199.9 1691.1,2137.2 1691.1,2137.2 L1635.1,2165.5 C1635.1,2165.5 1899.2,2494.9 2244.3,2370.7 C2404.5,2313.1 2515.0,2196.3 2590.8,2086.6 C2681.7,1955.2 2718.4,1822.3 2726.3,1793.8 C2740.8,1741.5 2751.8,1660.2 2751.8,1660.2 L3188.7,1419.1 C3188.7,1419.1 3444.1,1497.8 3466.1,1489.8 C3488.1,1481.8 3490.4,1461.1 3490.4,1461.1 L3238.1,1347.2 L3203.5,1347.5 L2698.7,1600.8 C2698.7,1600.8 2651.4,2171.4 2233.3,2309.3 C2030.5,2376.1 1916.3,2307.3 1830.9,2255.2 Z"/>
  <path id="Path-15" fill="#f2ede6" stroke="#13293d" stroke-width="22.5" d="M2712.3,1606.7 L1652.9,2170.5"/>
  <path id="Ellipse-1" fill="#fff" fill-opacity="0.0" stroke="#000" stroke-width="0.5" d="M3475.1,1433.6 C3475.1,1437.6 3471.8,1440.8 3467.7,1440.8 C3463.6,1440.8 3460.3,1437.6 3460.3,1433.6 C3460.3,1429.7 3463.6,1426.5 3467.7,1426.5 C3471.8,1426.5 3475.1,1429.7 3475.1,1433.6 Z"/>
  <path id="Ellipse-2" fill="#fff" fill-opacity="0.0" stroke="#000" stroke-width="0.5" d="M3445.1,1420.4 C3445.1,1424.1 3441.7,1427.2 3437.7,1427.2 C3433.6,1427.2 3430.3,1424.1 3430.3,1420.4 C3430.3,1416.6 3433.6,1413.5 3437.7,1413.5 C3441.7,1413.5 3445.1,1416.6 3445.1,1420.4 Z"/>
  <path id="Ellipse-3" fill="#fff" stroke="#000" stroke-width="1.0" d="M2616.3,2337.2 C2616.3,2337.2 2616.2,2337.2 2616.1,2337.2 C2616.1,2337.2 2616.0,2337.2 2616.0,2337.2 C2616.0,2337.2 2616.1,2337.2 2616.1,2337.2 C2616.2,2337.2 2616.3,2337.2 2616.3,2337.2 Z"/>
  <path id="EllipsexorEllipse-Path" fill="#13293d" fill-rule="evenodd" d="M877.2,2688.2 C925.9,2672.9 992.1,2667.2 1059.6,2665.4 C1186.4,2662.0 1330.5,2676.3 1378.8,2711.0 C1427.1,2745.6 1447.2,2802.2 1447.2,2802.2 L1584.0,2802.2 C1584.0,2802.2 1561.2,2734.1 1652.4,2689.5 C1743.5,2644.9 1789.1,2667.2 1789.1,2667.2 L1903.1,2597.0 L1903.1,2802.2 L2427.5,2802.2 L2473.1,2779.4 L2062.7,2778.7 L2222.3,2600.2 C2222.3,2600.2 2245.1,2665.4 2290.7,2665.4 C2336.3,2665.4 2518.7,2665.4 2518.7,2665.4 L2632.7,2756.4 L2564.3,2802.2 L2769.5,2802.2 L2769.5,2689.5 C2769.5,2689.5 3020.2,2667.2 3065.8,2734.1 C3095.5,2777.8 3088.6,2802.2 3088.6,2802.2 L3293.8,2802.2 L3293.8,2711.8 L3408.5,2597.0 L3407.8,2802.2 L3795.4,2802.2 L3795.4,2688.2 L3907.9,2597.0 L3909.3,2802.2 L4091.7,2802.2 L4046.1,2460.2 L4160.1,2369.0 L4182.9,2597.0 C4182.9,2597.0 4237.1,2548.5 4251.3,2528.6 C4265.6,2508.6 4296.9,2414.6 4296.9,2414.6 C4296.9,2414.6 4319.7,2447.9 4319.7,2483.0 C4319.7,2518.1 4308.3,2562.6 4274.1,2619.8 C4239.9,2677.0 4182.9,2711.8 4182.9,2711.8 L4228.5,3007.4 C4228.5,3007.4 4274.1,3004.9 4274.1,2939.0 C4274.1,2873.0 4274.1,2802.2 4274.1,2802.2 L4456.5,2802.2 L4412.0,2916.2 L4365.3,2916.2 L4365.3,3052.9 C4365.3,3052.9 4331.1,3081.4 4296.9,3098.5 C4262.7,3115.6 4228.5,3121.3 4228.5,3121.3 L4114.5,3024.1 L4115.1,2916.2 L3068.7,2916.2 C3068.7,2916.2 3020.2,2979.5 2929.0,2979.5 C2837.8,2979.5 2791.1,2916.2 2791.1,2916.2 L1310.4,2916.2 C1310.4,2916.2 1310.4,2778.7 1242.0,2778.7 C1173.6,2778.7 854.4,2778.7 854.4,2778.7 C854.4,2778.7 814.5,2791.5 808.8,2825.0 C803.1,2858.4 808.8,2916.2 808.8,2916.2 L550.2,2916.2 L603.7,2802.2 L693.9,2802.2 L649.2,2466.4 L740.4,2377.2 L786.0,2733.8 C786.0,2733.8 820.2,2706.1 877.2,2688.2 ZM2974.6,2825.0 C2974.6,2850.1 2954.2,2870.6 2929.0,2870.6 C2903.9,2870.6 2883.4,2850.1 2883.4,2825.0 C2883.4,2799.8 2903.9,2779.4 2929.0,2779.4 C2954.2,2779.4 2974.6,2799.8 2974.6,2825.0 ZM1789.1,2785.1 C1789.1,2807.1 1768.7,2825.0 1743.5,2825.0 C1718.4,2825.0 1698.0,2807.1 1698.0,2785.1 C1698.0,2763.0 1718.4,2745.2 1743.5,2745.2 C1768.7,2745.2 1789.1,2763.0 1789.1,2785.1 Z"/>
  <path id="Ellipse-4" fill="#fff" fill-opacity="0.0" stroke="#000" stroke-width="0.5" d="M3416.7,1406.6 C3416.7,1410.5 3413.4,1413.6 3409.3,1413.6 C3405.2,1413.6 3401.9,1410.5 3401.9,1406.6 C3401.9,1402.7 3405.2,1399.5 3409.3,1399.5 C3413.4,1399.5 3416.7,1402.7 3416.7,1406.6 Z"/>
  <path id="Ellipse-5" fill="#fff" fill-opacity="0.0" stroke="#000" stroke-width="0.5" d="M3386.2,1393.0 C3386.2,1396.9 3382.9,1400.1 3378.8,1400.1 C3374.8,1400.1 3371.5,1396.9 3371.5,1393.0 C3371.5,1389.1 3374.8,1385.9 3378.8,1385.9 C3382.9,1385.9 3386.2,1389.1 3386.2,1393.0 Z"/>
  <path id="Ellipse-6" fill="#fff" fill-opacity="0.0" stroke="#000" stroke-width="0.5" d="M3356.1,1379.9 C3356.1,1384.0 3352.8,1387.3 3348.7,1387.3 C3344.6,1387.3 3341.3,1384.0 3341.3,1379.9 C3341.3,1375.8 3344.6,1372.5 3348.7,1372.5 C3352.8,1372.5 3356.1,1375.8 3356.1,1379.9 Z"/>
  <path id="Ellipse-7" fill="#fff" fill-opacity="0.0" stroke="#000" stroke-width="0.5" d="M3326.5,1365.2 C3326.5,1369.2 3323.2,1372.5 3319.2,1372.5 C3315.1,1372.5 3311.8,1369.2 3311.8,1365.2 C3311.8,1361.1 3315.1,1357.8 3319.2,1357.8 C3323.2,1357.8 3326.5,1361.1 3326.5,1365.2 Z"/>
  <path id="Ellipse-8" fill="#fff" fill-opacity="0.0" stroke="#000" stroke-width="0.5" d="M3448.2,1507.0 C3448.2,1510.9 3444.8,1514.1 3440.8,1514.1 C3436.7,1514.1 3433.4,1510.9 3433.4,1507.0 C3433.4,1503.0 3436.7,1499.9 3440.8,1499.9 C3444.8,1499.9 3448.2,1503.0 3448.2,1507.0 Z"/>
  <path id="Ellipse-9" fill="#fff" fill-opacity="0.0" stroke="#000" stroke-width="0.5" d="M3418.0,1499.7 C3418.0,1503.7 3414.7,1507.0 3410.6,1507.0 C3406.6,1507.0 3403.3,1503.7 3403.3,1499.7 C3403.3,1495.7 3406.6,1492.4 3410.6,1492.4 C3414.7,1492.4 3418.0,1495.7 3418.0,1499.7 Z"/>
  <path id="Ellipse-10" fill="#fff" fill-opacity="0.0" stroke="#000" stroke-width="0.5" d="M3387.2,1490.9 C3387.2,1494.8 3383.9,1498.0 3379.9,1498.0 C3375.8,1498.0 3372.5,1494.8 3372.5,1490.9 C3372.5,1487.0 3375.8,1483.8 3379.9,1483.8 C3383.9,1483.8 3387.2,1487.0 3387.2,1490.9 Z"/>
  <path id="Ellipse-11" fill="#fff" fill-opacity="0.0" stroke="#000" stroke-width="0.5" d="M3356.1,1482.8 C3356.1,1486.7 3352.8,1489.8 3348.7,1489.8 C3344.6,1489.8 3341.3,1486.7 3341.3,1482.8 C3341.3,1478.9 3344.6,1475.7 3348.7,1475.7 C3352.8,1475.7 3356.1,1478.9 3356.1,1482.8 Z"/>
  <path id="Ellipse-12" fill="#fff" fill-opacity="0.0" stroke="#000" stroke-width="0.5" d="M3326.5,1475.4 C3326.5,1479.5 3323.2,1482.8 3319.2,1482.8 C3315.1,1482.8 3311.8,1479.5 3311.8,1475.4 C3311.8,1471.3 3315.1,1468.0 3319.2,1468.0 C3323.2,1468.0 3326.5,1471.3 3326.5,1475.4 Z"/>
  <path id="Ellipse-13" fill="#fff" fill-opacity="0.0" stroke="#000" stroke-width="0.5" d="M3295.7,1466.8 C3295.7,1470.9 3292.4,1474.2 3288.3,1474.2 C3284.3,1474.2 3280.9,1470.9 3280.9,1466.8 C3280.9,1462.7 3284.3,1459.4 3288.3,1459.4 C3292.4,1459.4 3295.7,1462.7 3295.7,1466.8 Z"/>
</svg>
